<?xml version="1.0" standalone="no"?>
<!DOCTYPE svg PUBLIC "-//W3C//DTD SVG 20010904//EN"
 "http://www.w3.org/TR/2001/REC-SVG-20010904/DTD/svg10.dtd">
<svg version="1.0" xmlns="http://www.w3.org/2000/svg"
 width="512.000000pt" height="512.000000pt" viewBox="0 0 512.000000 512.000000"
 preserveAspectRatio="xMidYMid meet">
<metadata>
Created by potrace 1.14, written by Peter Selinger 2001-2017
</metadata>
<g transform="translate(0.000000,512.000000) scale(0.100000,-0.100000)"
fill="#000000" stroke="none">
<path d="M2249 5116 c-2 -2 -22 -6 -44 -10 -185 -27 -399 -170 -551 -367 -207
-269 -380 -702 -483 -1204 -11 -55 -22 -115 -25 -134 -3 -18 -8 -37 -13 -41
-4 -4 -44 -19 -88 -34 -410 -141 -742 -368 -910 -621 -98 -148 -137 -278 -130
-435 2 -52 7 -111 10 -130 10 -53 63 -184 90 -225 14 -20 25 -40 25 -45 0 -4
3 -10 8 -12 4 -2 26 -28 50 -59 171 -226 548 -448 1000 -589 41 -13 76 -28 78
-34 168 -507 378 -843 639 -1028 151 -107 289 -149 470 -144 199 6 386 99 555
273 41 43 86 92 100 108 70 85 176 257 239 390 38 81 121 288 121 304 0 6 3
11 8 12 51 5 339 71 452 104 69 19 132 37 140 39 59 15 297 108 398 157 334
161 556 355 661 580 63 133 86 327 55 464 -80 355 -412 654 -966 870 -54 21
-98 41 -97 44 0 3 40 35 89 70 112 80 129 99 133 142 7 67 -48 124 -114 117
-37 -4 -493 -341 -509 -376 -5 -13 -10 -39 -10 -59 0 -35 14 -51 228 -266 125
-126 239 -235 254 -243 91 -48 190 53 140 143 -6 9 -61 68 -124 130 -110 111
-112 113 -70 99 119 -42 330 -149 444 -225 331 -222 459 -477 378 -750 -89
-299 -458 -555 -1055 -730 -68 -20 -303 -75 -368 -86 -18 -3 -39 -8 -47 -10
-8 -2 -35 -7 -60 -10 -25 -3 -56 -8 -70 -11 -14 -2 -43 -7 -65 -9 -22 -3 -56
-7 -75 -10 -79 -11 -148 -18 -305 -30 -53 -5 -500 -5 -545 -1 -19 2 -75 7
-125 10 -49 4 -101 9 -115 11 -14 2 -50 7 -80 10 -48 5 -222 33 -315 51 -86
16 -211 46 -215 52 -15 19 -77 278 -95 397 -51 341 -60 448 -59 775 0 212 4
323 18 455 11 101 18 156 26 205 5 30 12 71 15 90 3 19 11 62 17 95 6 33 12
67 12 75 9 74 89 378 140 528 219 646 542 969 910 911 234 -38 474 -277 655
-654 39 -80 91 -204 91 -216 0 -4 -53 46 -118 110 -129 129 -157 144 -216 116
-33 -16 -64 -59 -61 -85 1 -8 3 -25 3 -38 2 -16 75 -97 230 -251 125 -125 237
-233 249 -239 36 -20 89 -14 116 11 13 12 99 122 190 245 146 195 167 227 167
260 0 87 -92 136 -165 88 -11 -8 -51 -57 -90 -110 -38 -52 -72 -95 -75 -96 -3
0 -25 50 -48 112 -115 295 -248 514 -417 684 -134 136 -254 213 -405 259 -49
15 -270 32 -281 21z m-1154 -2063 c-3 -38 -8 -90 -10 -118 -13 -134 -16 -206
-16 -400 0 -115 3 -235 5 -265 3 -30 7 -89 10 -130 4 -41 8 -93 11 -115 3 -22
7 -56 9 -75 12 -105 31 -221 57 -353 17 -82 28 -151 25 -155 -9 -8 -218 74
-352 139 -586 284 -772 684 -490 1056 84 111 237 233 416 331 79 43 315 150
333 152 5 0 6 -30 2 -67z m536 -1952 c52 -11 114 -22 139 -25 41 -6 74 -10
150 -21 14 -2 57 -7 95 -11 39 -3 79 -8 90 -10 118 -23 757 -22 879 2 11 2 52
6 90 9 38 4 73 8 77 11 12 7 -38 -111 -95 -226 -219 -438 -511 -661 -796 -608
-123 23 -290 130 -391 249 -117 139 -242 353 -314 539 -20 52 -39 98 -42 103
-7 11 17 9 118 -12z"/>
<path d="M2459 3397 c-129 -48 -205 -149 -216 -286 -12 -151 93 -292 242 -326
109 -26 211 2 294 80 69 64 96 129 96 230 0 69 -4 88 -30 138 -32 65 -82 115
-147 148 -54 28 -184 36 -239 16z m152 -213 c93 -48 54 -194 -52 -194 -103 0
-143 137 -55 191 38 23 67 24 107 3z"/>
<path d="M2240 2546 c-144 -41 -252 -144 -299 -284 -16 -50 -20 -85 -18 -172
2 -99 4 -111 26 -134 32 -34 91 -43 130 -20 39 23 52 57 53 130 0 98 15 157
53 201 63 74 77 77 359 79 137 0 266 -3 287 -9 22 -5 59 -27 83 -48 54 -48 75
-105 73 -205 -1 -88 15 -128 58 -148 49 -23 81 -20 117 13 l33 29 0 124 c0 97
-4 134 -20 173 -42 111 -115 190 -225 244 l-75 36 -295 2 c-212 1 -308 -2
-340 -11z"/>
</g>
</svg>
